<svg width="50" height="50" viewBox="0 0 50 50" fill="none" xmlns="http://www.w3.org/2000/svg">
<rect width="50" height="50" rx="25" fill="#252525"/>
<path d="M24.5988 17.5234V18.8594H14.7902V17.5234H18.8331V16.6797H15.962V12.8008H23.462V14.125H17.6495V15.3438H23.5675V16.6797H20.5323V17.5234H24.5988ZM23.4386 19.5039V23.1367H21.7745V20.8281H15.88V19.5039H23.4386ZM35.2098 17.8867V19.2109H25.4012V17.8867H29.4442V16.8672H31.1317V17.8867H35.2098ZM34.0262 19.8438V23.125H32.3387V21.168H26.4911V19.8438H34.0262ZM31.1317 12.4023V13.3164H34.2723V14.6406H31.2723C31.4598 15.291 32.4032 15.9473 34.8231 16.082L34.2958 17.3594C32.2802 17.2305 30.9559 16.6797 30.288 15.8594C29.6083 16.6797 28.2841 17.2305 26.2684 17.3594L25.7645 16.082C28.161 15.9473 29.1044 15.291 29.3036 14.6406H26.3153V13.3164H29.4442V12.4023H31.1317ZM23.3214 26.3672V30.5039H24.8448V31.8984H23.3214V37.125H21.6573V26.3672H23.3214ZM21.0245 27.9375V29.2734H14.7316V27.9375H17.0636V26.543H18.7511V27.9375H21.0245ZM17.9073 29.7891C19.4777 29.7891 20.673 30.8672 20.6847 32.3789C20.673 33.9023 19.4777 34.9688 17.9073 34.9688C16.2902 34.9688 15.1066 33.9023 15.1183 32.3789C15.1066 30.8672 16.2902 29.7891 17.9073 29.7891ZM17.9073 31.1484C17.2159 31.1602 16.7238 31.6055 16.7355 32.3789C16.7238 33.1758 17.2159 33.5977 17.9073 33.5977C18.5753 33.5977 19.0558 33.1758 19.0675 32.3789C19.0558 31.6055 18.5753 31.1602 17.9073 31.1484ZM34.4833 26.3672V37.125H32.7723V26.3672H34.4833ZM31.2489 27.4805C31.2489 30.7969 30.1942 33.4922 26.2802 35.332L25.4012 33.9961C28.1376 32.7012 29.286 31.1133 29.5262 28.793H26.0106V27.4805H31.2489Z" fill="#FF0000"/>
</svg>
